# xmcd
#
# Track frame offsets:
#	150
#	19130
#	31992
#	49189
#	65325
#	82400
#	100752
#	120302
#	135410
#	150435
#	167860
#	181205
#	194742
#	214302
#	233665
#	252112
#	273115
#
# Disc length: 3986 seconds
#
# Revision: 2
# Processed by: cddbd v1.5.1PL2 Copyright (c) Steve Scherf et al.
# Submitted via: audiograbber 1.83.01
#
DISCID=e40f9011
DTITLE=Det Bedste Af Dansk Musik - Det Bedste Af Dansk Musik 1994 - 1996 Disk 1
DYEAR=1998
DGENRE=Dansk Rock and Pop
TTITLE0=Ann Louise - Stay
TTITLE1=Kim Larsen and Kjukken - Jyllingevej
TTITLE2=Backseat Feat Erica Carson - No1 In Your Heart
TTITLE3=Søs Fenger - Sidste Time
TTITLE4=Gangway - Come Back As A Dog
TTITLE5=Dr. Dante - Køb Bananer
TTITLE6=Sticks'n'fire - Stop That Train
TTITLE7=Savage Rose - Run Rose
TTITLE8=Kaya - Misdemeanor
TTITLE9=Nice Little Penquins - The Letter
TTITLE10=Big Fat Snake and Landsholdet - Big Boys In Red and White
TTITLE11=Drori-hansen Furniture - Then You'll Know Why
TTITLE12=Papkasseshow - Kender Du Det? [Mona Mona]
TTITLE13=Sanne Salomonsen - Den Lille Løgn
TTITLE14=Poul Krebs - Sådan Nogen Som Os
TTITLE15=Alberte - Rejsen Til Amerika
TTITLE16=Martin Hall - Cradlemoon
EXTD=
EXTT0=
EXTT1=
EXTT2=
EXTT3=
EXTT4=
EXTT5=
EXTT6=
EXTT7=
EXTT8=
EXTT9=
EXTT10=
EXTT11=
EXTT12=
EXTT13=
EXTT14=
EXTT15=
EXTT16=
PLAYORDER=
